# xmcd CD database file
#
# Track frame offsets:
#	150
#	36900
#	53175
#	91575
#	120825
#	148490
#	173165
#	190295
#	218953
#	241943
#
# Disc length: 3496 seconds
#
# Revision: 0
# Processed by: cddbd v1.4PL0 Copyright (c) Steve Scherf et al.
# Submitted via: CDex 1.50Beta7
#
DISCID=890da60a
DTITLE=Junky Funk - Jack-in-the-Box
DYEAR=1999
DGENRE=Jazz
TTITLE0=Jack-in-the-Box
TTITLE1=Fujack
TTITLE2=Fireworks
TTITLE3=Seascapes
TTITLE4=Oceanfront
TTITLE5=J&F
TTITLE6=Junky Funk
TTITLE7=High-Energy Stuff
TTITLE8=Disillusion
TTITLE9=The Crack of Flaming Dawn
EXTD=YEAR: 1999
EXTT0=
EXTT1=
EXTT2=
EXTT3=
EXTT4=
EXTT5=
EXTT6=
EXTT7=
EXTT8=
EXTT9=
PLAYORDER=
